<?xml version="1.0" standalone="no"?>
<!DOCTYPE svg PUBLIC "-//W3C//DTD SVG 20010904//EN"
 "http://www.w3.org/TR/2001/REC-SVG-20010904/DTD/svg10.dtd">
<svg version="1.0" xmlns="http://www.w3.org/2000/svg"
 width="512.000000pt" height="512.000000pt" viewBox="0 0 512.000000 512.000000"
 preserveAspectRatio="xMidYMid meet">

<g transform="translate(0.000000,512.000000) scale(0.100000,-0.100000)"
fill="#000000" stroke="none">
<path d="M1131 4149 c-114 -21 -195 -120 -194 -239 0 -60 17 -113 220 -665
l221 -600 1406 -3 c828 -1 1406 2 1406 7 0 5 -15 22 -33 37 -47 41 -2904 1462
-2947 1467 -19 2 -55 0 -79 -4z"/>
<path d="M1375 2468 c-237 -644 -437 -1200 -441 -1228 -9 -55 20 -143 62 -190
50 -55 111 -82 187 -82 l62 0 1439 718 c792 396 1454 732 1473 748 18 15 33
32 33 37 0 5 -583 9 -1405 9 -1115 0 -1407 -3 -1410 -12z"/>
</g>
</svg>
