<?xml version="1.0" standalone="no"?>
<!DOCTYPE svg PUBLIC "-//W3C//DTD SVG 20010904//EN"
 "http://www.w3.org/TR/2001/REC-SVG-20010904/DTD/svg10.dtd">
<svg version="1.0" xmlns="http://www.w3.org/2000/svg"
 width="24" height="24" viewBox="0 0 629.000000 417.000000"
 preserveAspectRatio="xMidYMid meet">

<g transform="translate(0.000000,417.000000) scale(0.100000,-0.100000)"
fill="white" stroke="none">
<path d="M2629 4112 c-8 -10 -18 -26 -22 -35 -3 -9 -11 -17 -16 -17 -5 0 -12
-13 -16 -30 -4 -16 -13 -30 -21 -30 -9 0 -14 -11 -14 -30 0 -20 -5 -30 -15
-30 -8 0 -15 -9 -15 -20 0 -11 -7 -20 -15 -20 -10 0 -15 -10 -15 -30 0 -20 -5
-30 -15 -30 -8 0 -15 -6 -15 -13 0 -7 -8 -20 -19 -29 -16 -13 -53 -16 -222
-19 -147 -3 -203 -7 -206 -16 -3 -7 -20 -15 -39 -19 -19 -3 -34 -12 -34 -20 0
-9 -11 -14 -30 -14 -20 0 -30 -5 -30 -15 0 -8 -7 -15 -15 -15 -8 0 -15 -7 -15
-15 0 -8 -7 -15 -15 -15 -8 0 -15 -6 -15 -13 0 -7 -9 -20 -20 -30 -11 -9 -20
-23 -20 -31 0 -8 -7 -16 -15 -20 -9 -3 -15 -18 -15 -36 0 -20 -5 -30 -15 -30
-13 0 -15 -92 -15 -770 0 -678 2 -770 15 -770 10 0 15 -10 15 -30 0 -20 5 -30
15 -30 8 0 15 -7 15 -15 0 -9 7 -18 15 -21 8 -4 15 -12 15 -20 0 -8 9 -22 20
-31 11 -10 20 -23 20 -30 0 -8 12 -13 30 -13 20 0 30 -5 30 -15 0 -8 9 -15 19
-15 11 0 26 -6 33 -13 7 -8 33 -16 58 -20 24 -3 46 -11 48 -16 5 -15 2179 -15
2184 0 2 5 24 13 48 16 25 4 51 12 58 20 7 7 22 13 33 13 10 0 19 7 19 15 0 8
7 15 15 15 8 0 15 6 15 14 0 7 14 16 30 19 18 4 30 13 30 22 0 8 9 23 20 32
11 10 20 23 20 30 0 7 7 13 15 13 10 0 15 10 15 30 0 20 5 30 15 30 13 0 15
92 15 770 0 678 -2 770 -15 770 -10 0 -15 10 -15 30 0 18 -6 33 -15 36 -8 4
-15 12 -15 20 0 8 -9 22 -20 31 -11 10 -20 23 -20 30 0 7 -7 13 -15 13 -8 0
-15 7 -15 15 0 8 -7 15 -15 15 -8 0 -15 7 -15 15 0 10 -10 15 -30 15 -19 0
-30 5 -30 14 0 8 -15 17 -34 20 -19 4 -36 12 -39 19 -3 9 -59 13 -206 16 -169
3 -206 6 -222 19 -11 9 -19 22 -19 29 0 7 -7 13 -15 13 -10 0 -15 10 -15 30 0
20 -5 30 -15 30 -8 0 -15 9 -15 20 0 11 -7 20 -15 20 -10 0 -15 10 -15 30 0
19 -5 30 -14 30 -8 0 -17 13 -21 29 -3 16 -13 32 -21 35 -8 3 -14 12 -14 21 0
8 -7 15 -15 15 -8 0 -15 7 -15 15 0 13 -63 15 -508 15 -476 0 -509 -1 -523
-18z m621 -671 c0 -5 28 -12 62 -16 34 -4 68 -14 76 -21 7 -8 29 -14 48 -14
24 0 34 -5 34 -15 0 -10 10 -15 30 -15 20 0 30 -5 30 -15 0 -8 9 -15 20 -15
11 0 20 -6 20 -14 0 -8 14 -17 30 -21 17 -4 30 -13 30 -21 0 -8 7 -14 15 -14
8 0 15 -7 15 -15 0 -8 7 -15 15 -15 8 0 15 -7 15 -15 0 -8 6 -15 14 -15 8 0
17 -13 21 -30 4 -16 13 -30 21 -30 8 0 14 -9 14 -20 0 -11 7 -20 15 -20 10 0
15 -10 15 -30 0 -20 5 -30 15 -30 10 0 15 -10 15 -30 0 -17 6 -33 14 -36 8 -3
17 -28 21 -62 4 -31 12 -60 19 -64 17 -11 15 -276 -2 -287 -8 -4 -16 -28 -19
-52 -4 -24 -12 -50 -20 -57 -7 -7 -13 -29 -13 -48 0 -24 -5 -34 -15 -34 -8 0
-15 -9 -15 -20 0 -11 -7 -20 -15 -20 -9 0 -15 -9 -15 -25 0 -14 -7 -28 -15
-31 -8 -4 -15 -12 -15 -20 0 -8 -9 -14 -20 -14 -11 0 -20 -6 -20 -14 0 -8 -7
-16 -15 -20 -8 -3 -15 -12 -15 -21 0 -8 -7 -15 -15 -15 -8 0 -15 -7 -15 -15 0
-8 -7 -15 -15 -15 -8 0 -15 -7 -15 -15 0 -8 -9 -15 -20 -15 -11 0 -20 -7 -20
-15 0 -10 -10 -15 -30 -15 -20 0 -30 -5 -30 -15 0 -10 -10 -15 -30 -15 -19 0
-30 -5 -30 -14 0 -9 -16 -15 -46 -19 -26 -2 -50 -11 -55 -18 -12 -20 -366 -20
-378 0 -5 7 -29 16 -55 18 -30 4 -46 10 -46 19 0 9 -11 14 -30 14 -20 0 -30 5
-30 15 0 10 -10 15 -30 15 -20 0 -30 5 -30 15 0 8 -9 15 -20 15 -11 0 -20 7
-20 15 0 8 -7 15 -15 15 -8 0 -15 7 -15 15 0 8 -7 15 -15 15 -8 0 -15 7 -15
16 0 9 -9 18 -20 21 -11 3 -20 12 -20 19 0 8 -7 14 -15 14 -8 0 -15 7 -15 15
0 8 -7 15 -15 15 -10 0 -15 10 -15 30 0 20 -5 30 -15 30 -8 0 -15 9 -15 20 0
11 -7 20 -15 20 -10 0 -15 10 -15 34 0 19 -6 41 -13 48 -8 7 -16 33 -20 57 -3
24 -11 48 -19 52 -17 11 -19 276 -2 287 7 4 15 33 19 64 4 34 13 59 21 62 8 3
14 19 14 36 0 20 5 30 15 30 10 0 15 10 15 30 0 20 5 30 15 30 8 0 15 9 15 20
0 11 6 20 14 20 8 0 17 14 21 30 4 17 13 30 21 30 8 0 14 7 14 15 0 8 7 15 15
15 8 0 15 7 15 15 0 8 7 15 15 15 8 0 15 6 15 14 0 8 14 17 30 21 17 4 30 13
30 21 0 8 9 14 20 14 11 0 20 7 20 15 0 10 10 15 30 15 20 0 30 5 30 15 0 10
10 15 34 15 19 0 41 6 48 14 8 7 42 17 76 21 34 4 62 11 62 16 0 5 45 9 100 9
55 0 100 -4 100 -9z"/>
<path d="M3080 3215 c0 -12 -13 -15 -60 -15 -47 0 -60 -3 -60 -15 0 -10 -10
-15 -30 -15 -17 0 -33 -6 -36 -14 -3 -8 -19 -18 -35 -21 -16 -4 -29 -13 -29
-21 0 -8 -7 -14 -15 -14 -8 0 -15 -7 -15 -15 0 -8 -7 -15 -15 -15 -8 0 -15 -7
-15 -15 0 -8 -6 -15 -14 -15 -8 0 -17 -13 -21 -30 -4 -16 -13 -30 -21 -30 -9
0 -14 -11 -14 -30 0 -20 -5 -30 -15 -30 -11 0 -15 -11 -15 -40 0 -29 -4 -40
-15 -40 -13 0 -15 -21 -15 -125 0 -104 2 -125 15 -125 11 0 15 -12 15 -45 0
-33 4 -45 15 -45 10 0 15 -10 15 -30 0 -18 6 -33 15 -36 8 -4 15 -12 15 -20 0
-8 7 -14 15 -14 8 0 15 -7 15 -15 0 -8 7 -15 16 -15 9 0 18 -9 21 -20 3 -11
12 -20 19 -20 8 0 14 -7 14 -15 0 -8 7 -15 15 -15 8 0 15 -7 15 -15 0 -10 10
-15 30 -15 20 0 30 -5 30 -15 0 -10 11 -15 35 -15 24 0 35 -5 35 -15 0 -13 24
-15 160 -15 136 0 160 2 160 15 0 10 11 15 35 15 24 0 35 5 35 15 0 9 9 15 25
15 14 0 28 7 31 15 4 8 12 15 20 15 8 0 14 7 14 15 0 8 6 15 14 15 7 0 16 9
19 20 3 11 12 20 21 20 9 0 16 7 16 15 0 8 7 15 15 15 8 0 15 6 15 14 0 8 7
16 15 20 9 3 15 18 15 36 0 20 5 30 15 30 11 0 15 12 15 45 0 33 4 45 15 45
12 0 15 19 15 115 0 96 -3 115 -15 115 -11 0 -15 12 -15 50 0 38 -4 50 -15 50
-10 0 -15 10 -15 30 0 19 -5 30 -14 30 -8 0 -17 14 -21 30 -4 17 -13 30 -21
30 -8 0 -14 7 -14 15 0 8 -7 15 -15 15 -8 0 -15 7 -15 15 0 8 -7 15 -15 15 -8
0 -15 6 -15 14 0 8 -13 17 -29 21 -16 3 -32 13 -35 21 -3 8 -19 14 -36 14 -20
0 -30 5 -30 15 0 12 -13 15 -60 15 -47 0 -60 3 -60 15 0 12 -14 15 -70 15 -56
0 -70 -3 -70 -15z"/>
<path d="M5293 3121 c-3 -12 -12 -21 -19 -21 -8 0 -14 -7 -14 -15 0 -8 -7 -15
-15 -15 -8 0 -15 -7 -15 -15 0 -8 -7 -15 -15 -15 -8 0 -15 -7 -15 -15 0 -8 -7
-15 -15 -15 -8 0 -15 -7 -15 -15 0 -8 -7 -15 -16 -15 -9 0 -18 -9 -21 -20 -3
-11 -12 -20 -19 -20 -8 0 -14 -7 -14 -15 0 -8 -7 -15 -15 -15 -8 0 -15 -7 -15
-15 0 -8 -7 -15 -15 -15 -8 0 -15 -7 -15 -15 0 -8 -7 -15 -15 -15 -8 0 -15 -7
-15 -15 0 -8 -7 -15 -16 -15 -9 0 -18 -9 -21 -20 -3 -11 -12 -20 -19 -20 -8 0
-14 -7 -14 -15 0 -8 -7 -15 -15 -15 -8 0 -15 -7 -15 -15 0 -8 -7 -15 -15 -15
-8 0 -15 -7 -15 -15 0 -8 7 -15 15 -15 8 0 15 -7 15 -15 0 -8 7 -15 15 -15 8
0 15 -6 15 -14 0 -7 9 -16 20 -19 11 -3 20 -12 20 -21 0 -9 7 -16 15 -16 8 0
15 -7 15 -15 0 -8 7 -15 15 -15 8 0 15 -7 15 -15 0 -8 7 -15 15 -15 8 0 15 -7
15 -15 0 -8 7 -15 15 -15 8 0 15 -7 15 -15 0 -8 7 -15 16 -15 9 0 18 -9 21
-20 3 -11 12 -20 19 -20 8 0 14 -7 14 -15 0 -8 7 -15 15 -15 8 0 15 -7 15 -15
0 -8 7 -15 15 -15 8 0 15 -7 15 -15 0 -8 7 -15 15 -15 8 0 15 -7 15 -15 0 -8
7 -15 16 -15 9 0 18 -9 21 -20 3 -11 9 -20 13 -20 14 0 20 45 20 168 0 102 2
122 15 122 8 0 15 -7 15 -15 0 -10 10 -15 30 -15 20 0 30 -5 30 -15 0 -8 5
-15 11 -15 7 0 27 -16 46 -35 19 -19 43 -35 53 -35 11 0 20 -7 20 -15 0 -8 7
-15 15 -15 8 0 15 -9 15 -20 0 -10 16 -34 35 -53 19 -19 35 -39 35 -46 0 -6 4
-11 10 -11 5 0 12 -16 16 -35 3 -20 12 -35 20 -35 11 0 14 -27 14 -140 0 -118
-2 -140 -15 -140 -10 0 -15 -11 -15 -35 0 -24 -5 -35 -14 -35 -8 0 -17 -14
-21 -30 -4 -17 -13 -30 -21 -30 -8 0 -14 -7 -14 -15 0 -8 -7 -15 -15 -15 -8 0
-15 -7 -15 -15 0 -8 -7 -15 -15 -15 -8 0 -15 -9 -15 -20 0 -11 -7 -20 -15 -20
-8 0 -15 -7 -15 -15 0 -8 -7 -15 -15 -15 -8 0 -15 -7 -15 -15 0 -8 -9 -15 -20
-15 -11 0 -20 -7 -20 -15 0 -8 -7 -15 -15 -15 -8 0 -15 -7 -15 -15 0 -10 -10
-15 -30 -15 -19 0 -30 -5 -30 -14 0 -8 -13 -17 -29 -21 -16 -3 -32 -13 -35
-21 -3 -8 -12 -14 -21 -14 -8 0 -15 -4 -15 -9 0 -5 -13 -12 -30 -16 -16 -4
-30 -13 -30 -21 0 -9 -11 -14 -35 -14 -23 0 -35 -5 -35 -14 0 -8 -16 -15 -41
-19 -23 -3 -45 -10 -48 -15 -3 -5 -19 -12 -36 -16 -16 -4 -33 -12 -36 -18 -3
-5 -25 -12 -48 -15 -25 -4 -41 -11 -41 -19 0 -10 -14 -14 -50 -14 -38 0 -50
-4 -50 -15 0 -11 -12 -15 -50 -15 -38 0 -50 -4 -50 -15 0 -12 -13 -15 -60 -15
-44 0 -60 -4 -60 -14 0 -10 -18 -15 -61 -18 -33 -2 -64 -10 -68 -16 -4 -6 -40
-15 -81 -18 -41 -4 -78 -12 -82 -18 -4 -6 -48 -12 -103 -14 -73 -3 -95 -7 -95
-18 0 -9 -11 -14 -30 -14 l-30 0 2 -382 3 -383 73 0 c42 0 76 5 80 11 4 6 42
13 86 16 43 3 81 10 85 16 4 6 40 15 81 18 41 4 78 12 82 18 4 5 39 12 77 14
52 3 71 8 71 18 0 11 16 14 65 14 51 0 65 3 65 15 0 11 12 15 50 15 36 0 50 4
50 14 0 9 16 15 46 19 26 2 50 10 54 16 3 7 24 14 46 18 21 3 42 10 45 16 4 5
27 12 53 14 30 4 46 10 46 19 0 10 14 14 45 14 33 0 45 4 45 15 0 10 10 15 30
15 18 0 33 6 36 15 4 9 19 15 35 15 18 0 29 5 29 14 0 8 14 18 32 21 17 4 38
14 46 21 7 8 22 14 33 14 10 0 19 7 19 15 0 10 10 15 30 15 20 0 30 5 30 15 0
10 10 15 30 15 17 0 33 6 36 14 3 8 19 18 35 21 16 4 29 13 29 21 0 8 6 14 14
14 8 0 16 7 20 15 3 8 17 15 31 15 16 0 25 6 25 15 0 8 9 15 20 15 11 0 20 7
20 15 0 8 7 15 15 15 8 0 15 6 15 14 0 8 14 17 30 21 17 4 30 13 30 21 0 8 6
14 14 14 8 0 16 7 20 15 3 8 12 15 21 15 8 0 15 7 15 15 0 8 7 15 15 15 8 0
15 7 15 15 0 8 7 15 15 15 8 0 15 9 15 20 0 11 7 20 15 20 8 0 15 7 15 15 0 8
9 23 20 32 11 10 20 23 20 30 0 7 7 13 15 13 10 0 15 10 15 30 0 20 5 30 15
30 8 0 15 9 15 20 0 11 6 20 14 20 8 0 15 16 19 41 3 23 10 45 15 48 5 3 12
26 16 51 4 24 12 48 19 52 16 10 17 236 0 246 -7 4 -15 28 -19 52 -4 25 -11
48 -16 51 -5 3 -12 25 -15 48 -4 25 -11 41 -19 41 -8 0 -14 9 -14 20 0 11 -7
20 -15 20 -10 0 -15 10 -15 30 0 20 -5 30 -15 30 -8 0 -15 6 -15 13 0 7 -9 20
-20 30 -11 9 -20 23 -20 31 0 8 -7 16 -15 20 -8 3 -15 12 -15 21 0 8 -7 15
-15 15 -8 0 -15 7 -15 15 0 8 -7 15 -15 15 -8 0 -15 7 -15 15 0 8 -6 15 -13
15 -7 0 -20 9 -30 20 -9 11 -23 20 -31 20 -8 0 -16 7 -20 15 -3 8 -12 15 -21
15 -8 0 -15 7 -15 15 0 8 -7 15 -15 15 -8 0 -15 7 -15 15 0 8 -9 15 -20 15
-11 0 -20 6 -20 14 0 8 -13 17 -30 21 -16 4 -30 13 -30 21 0 8 -7 14 -15 14
-8 0 -15 4 -15 10 0 5 -16 12 -35 16 -20 3 -35 12 -35 20 0 9 -11 14 -30 14
-20 0 -30 5 -30 15 0 10 -10 15 -30 15 -19 0 -30 5 -30 14 0 8 -13 17 -29 21
-16 3 -32 13 -35 21 -3 8 -19 14 -36 14 -20 0 -30 5 -30 15 0 10 -10 15 -30
15 l-30 0 -2 222 c-2 172 -6 222 -16 226 -7 2 -16 -5 -19 -17z"/>
<path d="M1420 2865 c0 -11 -12 -15 -45 -15 -26 0 -47 -5 -52 -13 -4 -8 -26
-17 -47 -20 -22 -4 -42 -11 -46 -17 -4 -6 -24 -13 -46 -17 -21 -3 -43 -12 -47
-20 -4 -7 -21 -13 -37 -13 -20 0 -30 -5 -30 -15 0 -11 -12 -15 -45 -15 -33 0
-45 -4 -45 -15 0 -10 -11 -15 -35 -15 -24 0 -35 -5 -35 -15 0 -10 -10 -15 -30
-15 -17 0 -33 -6 -36 -14 -3 -8 -19 -18 -35 -21 -16 -4 -29 -13 -29 -21 0 -9
-11 -14 -30 -14 -20 0 -30 -5 -30 -15 0 -10 -10 -15 -30 -15 -19 0 -30 -5 -30
-14 0 -8 -15 -17 -35 -20 -19 -4 -35 -11 -35 -16 0 -6 -7 -10 -15 -10 -8 0
-15 -6 -15 -14 0 -8 -14 -17 -30 -21 -16 -4 -30 -13 -30 -21 0 -8 -9 -14 -20
-14 -11 0 -20 -7 -20 -15 0 -8 -7 -15 -15 -15 -8 0 -15 -7 -15 -15 0 -8 -7
-15 -15 -15 -9 0 -18 -7 -21 -15 -4 -8 -12 -15 -20 -15 -8 0 -22 -9 -31 -20
-10 -11 -23 -20 -30 -20 -7 0 -13 -7 -13 -15 0 -8 -7 -15 -15 -15 -8 0 -15 -7
-15 -15 0 -8 -7 -15 -15 -15 -8 0 -15 -7 -15 -15 0 -9 -7 -18 -15 -21 -8 -4
-15 -12 -15 -20 0 -8 -9 -22 -20 -31 -11 -10 -20 -23 -20 -30 0 -7 -7 -13 -15
-13 -10 0 -15 -10 -15 -30 0 -20 -5 -30 -15 -30 -8 0 -15 -9 -15 -20 0 -11 -6
-20 -14 -20 -8 0 -15 -16 -19 -41 -3 -23 -10 -45 -15 -48 -5 -3 -12 -26 -16
-51 -4 -24 -12 -47 -18 -51 -16 -10 -17 -237 -1 -247 7 -4 15 -28 19 -52 4
-25 11 -48 16 -51 5 -3 12 -25 15 -48 4 -25 11 -41 19 -41 9 0 14 -11 14 -30
0 -20 5 -30 15 -30 8 0 15 -9 15 -20 0 -11 7 -20 15 -20 8 0 15 -6 15 -13 0
-7 9 -20 20 -30 11 -9 20 -24 20 -32 0 -8 7 -15 15 -15 8 0 15 -9 15 -20 0
-11 7 -20 15 -20 8 0 15 -7 15 -15 0 -8 7 -15 15 -15 8 0 15 -7 15 -15 0 -8 7
-15 15 -15 9 0 18 -7 21 -15 4 -8 12 -15 20 -15 8 0 14 -6 14 -14 0 -8 13 -17
30 -21 17 -4 30 -13 30 -21 0 -8 7 -14 15 -14 8 0 15 -7 15 -15 0 -8 9 -15 20
-15 11 0 20 -7 20 -15 0 -9 9 -15 25 -15 14 0 28 -7 31 -15 4 -8 12 -15 20
-15 8 0 14 -6 14 -14 0 -8 13 -17 29 -21 16 -3 32 -13 35 -21 3 -8 19 -14 36
-14 20 0 30 -5 30 -15 0 -10 10 -15 30 -15 20 0 30 -5 30 -15 0 -8 9 -15 19
-15 11 0 26 -6 33 -14 8 -7 29 -17 46 -21 18 -3 32 -13 32 -21 0 -9 11 -14 29
-14 16 0 31 -6 35 -15 3 -9 18 -15 36 -15 20 0 30 -5 30 -15 0 -11 12 -15 45
-15 31 0 45 -4 45 -14 0 -9 16 -15 46 -19 26 -2 49 -9 53 -14 3 -6 24 -13 45
-16 22 -4 43 -11 46 -18 4 -6 28 -14 54 -16 30 -4 46 -10 46 -19 0 -10 14 -14
50 -14 38 0 50 -4 50 -15 0 -12 14 -15 65 -15 51 0 65 -3 65 -15 0 -8 7 -15
15 -15 13 0 15 -28 15 -189 0 -187 0 -189 23 -195 33 -9 37 -8 37 9 0 8 7 15
16 15 9 0 18 9 21 20 3 11 12 20 19 20 8 0 14 7 14 15 0 8 7 15 15 15 8 0 15
7 15 15 0 8 7 15 15 15 8 0 15 7 15 15 0 8 7 15 15 15 8 0 15 7 15 15 0 8 7
15 16 15 9 0 18 9 21 20 3 11 12 20 19 20 8 0 14 7 14 15 0 8 7 15 15 15 8 0
15 7 15 15 0 8 7 15 15 15 8 0 15 7 15 15 0 8 7 15 15 15 8 0 15 7 15 15 0 8
7 15 16 15 9 0 18 9 21 20 3 11 12 20 19 20 8 0 14 7 14 15 0 8 7 15 15 15 8
0 15 7 15 15 0 8 7 15 15 15 8 0 15 7 15 15 0 8 7 15 15 15 8 0 15 6 15 14 0
7 9 16 20 19 11 3 20 12 20 21 0 9 7 16 15 16 8 0 15 7 15 15 0 8 7 15 15 15
8 0 15 7 15 15 0 8 7 15 15 15 8 0 15 7 15 15 0 8 7 15 15 15 8 0 15 6 15 14
0 7 9 16 20 19 11 3 20 12 20 21 0 9 7 16 16 16 12 0 15 6 10 22 -3 13 -6 26
-6 31 0 4 -7 7 -15 7 -8 0 -15 7 -15 15 0 8 -7 15 -15 15 -8 0 -15 7 -15 15 0
8 -7 15 -15 15 -8 0 -15 9 -15 20 0 11 -7 20 -15 20 -8 0 -15 7 -15 15 0 8 -9
15 -20 15 -11 0 -20 7 -20 15 0 8 -7 15 -15 15 -8 0 -15 7 -15 15 0 8 -7 15
-15 15 -8 0 -15 7 -15 15 0 8 -7 15 -15 15 -8 0 -15 9 -15 20 0 11 -7 20 -15
20 -8 0 -15 7 -15 15 0 8 -9 15 -20 15 -11 0 -20 7 -20 15 0 8 -7 15 -15 15
-8 0 -15 7 -15 15 0 8 -7 15 -15 15 -8 0 -15 7 -15 15 0 8 -7 15 -15 15 -8 0
-15 9 -15 20 0 11 -7 20 -15 20 -8 0 -15 7 -15 15 0 8 -9 15 -20 15 -11 0 -20
7 -20 15 0 8 -7 15 -15 15 -8 0 -15 7 -15 15 0 8 -7 15 -15 15 -8 0 -15 7 -15
15 0 8 -7 15 -15 15 -8 0 -15 9 -15 20 0 11 -7 20 -15 20 -8 0 -15 7 -15 15 0
8 -9 15 -20 15 -11 0 -20 7 -20 15 0 8 -7 15 -15 15 -8 0 -15 7 -15 15 0 8 -7
15 -15 15 -8 0 -15 7 -15 15 0 10 -10 15 -30 15 l-30 0 0 -140 0 -140 -30 0
c-20 0 -30 5 -30 15 0 11 -12 15 -50 15 -38 0 -50 4 -50 15 0 11 -12 15 -50
15 -36 0 -50 4 -50 14 0 8 -16 15 -41 19 -23 3 -45 10 -48 15 -3 6 -20 14 -36
18 -17 4 -33 11 -36 16 -3 5 -25 12 -48 15 -25 4 -41 11 -41 19 0 9 -12 14
-35 14 -24 0 -35 5 -35 14 0 8 -13 17 -30 21 -16 4 -30 11 -30 16 0 5 -7 9
-15 9 -9 0 -18 6 -21 14 -3 8 -19 18 -35 21 -16 4 -29 13 -29 21 0 9 -11 14
-30 14 -20 0 -30 5 -30 15 0 8 -7 15 -15 15 -8 0 -15 7 -15 15 0 8 -9 15 -20
15 -11 0 -20 7 -20 15 0 8 -7 15 -15 15 -8 0 -15 7 -15 15 0 8 -7 15 -15 15
-8 0 -15 9 -15 20 0 11 -7 20 -15 20 -8 0 -15 7 -15 15 0 8 -7 15 -15 15 -8 0
-15 7 -15 15 0 8 -6 15 -14 15 -8 0 -17 13 -21 30 -4 17 -13 30 -21 30 -9 0
-14 11 -14 35 0 24 -5 35 -15 35 -13 0 -15 22 -15 140 0 113 3 140 14 140 8 0
17 15 20 35 4 19 11 35 16 35 6 0 10 6 10 13 0 7 9 20 20 30 11 9 20 23 20 31
0 8 7 16 15 20 8 3 15 12 15 21 0 8 7 15 15 15 8 0 15 7 15 15 0 8 7 15 15 15
9 0 18 7 21 15 4 8 12 15 20 15 8 0 22 9 31 20 10 11 23 20 30 20 7 0 13 7 13
15 0 8 7 15 15 15 8 0 15 7 15 15 0 10 10 15 30 15 20 0 30 5 30 15 0 10 10
15 30 15 17 0 33 6 36 14 3 8 18 18 34 21 16 3 31 13 34 21 3 8 16 14 30 14
13 0 26 7 30 15 3 9 18 15 36 15 20 0 30 5 30 15 0 10 11 15 35 15 24 0 35 5
35 15 0 11 12 15 45 15 31 0 45 4 45 14 0 8 16 15 41 19 48 6 59 18 59 65 0
30 -2 32 -35 32 -24 0 -35 -5 -35 -15z"/>
</g>
</svg>
