<?xml version="1.0" standalone="no"?>
<!DOCTYPE svg PUBLIC "-//W3C//DTD SVG 20010904//EN"
 "http://www.w3.org/TR/2001/REC-SVG-20010904/DTD/svg10.dtd">
<svg version="1.0" xmlns="http://www.w3.org/2000/svg"
 width="54" height="54" viewBox="0 0 752.000000 752.000000"
 preserveAspectRatio="xMidYMid meet">

<g transform="translate(0.000000,752.000000) scale(0.100000,-0.100000)"
fill="#BDBDBD" stroke="none">
<path d="M1784 5324 c-52 -19 -111 -74 -135 -128 -17 -38 -19 -75 -19 -504 l0
-462 923 2 922 3 221 118 221 117 987 0 986 0 0 139 c0 76 -5 153 -11 172 -17
48 -54 95 -102 127 l-41 27 -1122 5 -1123 5 -23 22 c-19 19 -23 37 -28 123 -5
89 -9 104 -36 142 -16 23 -52 56 -79 73 l-48 30 -726 2 c-620 1 -732 0 -767
-13z"/>
<path d="M3681 4200 l-242 -120 -912 0 c-1004 0 -974 2 -1050 -61 -21 -17 -48
-50 -60 -72 l-22 -42 0 -1170 0 -1170 22 -40 c25 -47 64 -85 113 -111 34 -18
107 -19 2230 -19 2123 0 2196 1 2230 19 49 26 88 64 113 111 l22 40 0 1290 0
1290 -22 40 c-25 47 -64 85 -113 111 -33 18 -82 19 -1051 22 l-1017 2 -241
-120z m1021 -532 c56 -17 123 -79 145 -136 17 -44 18 -93 18 -727 l0 -680 -31
-55 c-41 -72 -110 -116 -197 -125 -34 -3 -453 -5 -932 -3 l-870 3 -55 31 c-41
23 -63 45 -87 84 l-33 54 0 696 c0 656 1 697 19 736 21 46 83 102 132 120 48
18 1834 19 1891 2z"/>
<path d="M2839 3501 l-24 -19 -3 -389 c-1 -213 -1 -454 0 -535 l3 -148 180
120 c137 92 188 120 212 120 26 0 60 -20 154 -90 92 -69 128 -90 152 -90 28 0
72 40 402 370 204 203 377 370 385 370 46 -1 68 -24 232 -243 l173 -231 3 345
c1 189 0 358 -3 376 -12 67 44 63 -946 63 -868 0 -898 -1 -920 -19z m521 -163
c178 -76 217 -319 72 -450 -135 -122 -340 -88 -425 70 -52 96 -47 196 16 288
73 110 210 147 337 92z"/>
<path d="M3204 3200 c-37 -15 -74 -68 -74 -107 0 -65 57 -123 120 -123 29 0
76 26 94 52 21 30 20 102 -1 135 -28 42 -92 62 -139 43z"/>
<path d="M3910 2615 c-259 -258 -362 -355 -379 -355 -31 0 -47 10 -183 111
-80 60 -128 89 -146 89 -17 0 -90 -42 -209 -121 -168 -112 -183 -124 -183
-151 0 -19 10 -40 29 -59 l29 -29 892 0 892 0 29 29 29 29 0 155 0 154 -184
245 c-101 135 -192 248 -201 252 -46 17 -61 4 -415 -349z"/>
</g>
</svg>
