<?xml version="1.0" standalone="no"?>
<!DOCTYPE svg PUBLIC "-//W3C//DTD SVG 20010904//EN"
 "http://www.w3.org/TR/2001/REC-SVG-20010904/DTD/svg10.dtd">
<svg version="1.0" xmlns="http://www.w3.org/2000/svg"
 width="474.000000pt" height="474.000000pt" viewBox="0 0 474.000000 474.000000"
 preserveAspectRatio="xMidYMid meet">

<g transform="translate(0.000000,474.000000) scale(0.100000,-0.100000)"
 stroke="none">
<path d="M2210 4270 c-182 -15 -354 -56 -530 -124 -173 -67 -356 -168 -343
-189 3 -6 1 -7 -5 -3 -14 9 -45 -10 -152 -95 -149 -117 -338 -328 -419 -466
-14 -25 -34 -59 -45 -76 -100 -169 -187 -405 -221 -599 -39 -228 -37 -523 6
-733 23 -111 89 -314 125 -387 14 -27 24 -49 23 -50 -1 -2 16 -34 37 -73 204
-378 528 -678 914 -847 256 -113 473 -158 760 -159 142 0 399 23 425 39 5 3
16 7 25 7 8 1 42 9 75 19 561 162 1004 552 1243 1096 33 75 90 251 97 300 1 8
5 22 8 30 26 66 46 358 36 540 -14 263 -70 465 -200 726 -115 230 -236 389
-435 568 -227 206 -516 357 -820 430 -182 43 -418 61 -604 46z m360 -677 c94
-43 146 -109 174 -219 12 -47 16 -115 16 -283 l0 -221 275 0 c249 0 281 -2
332 -20 31 -11 60 -17 65 -14 5 3 8 2 6 -3 -1 -4 23 -33 54 -63 40 -40 61 -72
78 -115 29 -79 25 -141 -33 -490 -25 -148 -48 -291 -51 -316 -4 -25 -9 -57
-11 -70 -2 -13 -9 -55 -15 -92 -28 -181 -114 -280 -278 -322 -56 -14 -134 -16
-635 -13 l-572 3 -50 28 c-28 15 -64 41 -80 56 l-30 28 -34 -26 c-34 -26 -35
-26 -226 -26 l-192 0 -42 29 c-79 55 -76 26 -79 621 -2 360 0 542 8 567 15 52
53 94 103 113 36 13 75 16 219 13 l176 -3 40 -32 c22 -18 42 -29 46 -26 3 4
29 14 57 24 114 40 233 132 292 226 45 71 50 111 51 375 1 274 1 272 67 289
62 15 219 5 269 -18z"/>
<path d="M2367 3268 c-6 -240 -14 -289 -63 -378 -70 -129 -232 -253 -391 -300
-29 -9 -43 -19 -45 -34 -3 -11 -4 -223 -4 -471 l1 -450 24 -42 c31 -55 83 -90
146 -101 77 -13 1082 -7 1131 7 23 6 56 21 75 34 58 39 74 84 108 297 17 107
36 227 42 265 6 39 13 79 14 90 2 11 16 97 31 190 16 105 24 184 20 206 -9 51
-60 114 -109 138 -41 20 -60 21 -358 21 -173 0 -319 4 -326 8 -27 17 -33 69
-32 311 0 226 -2 252 -21 302 -34 92 -89 129 -191 129 l-46 0 -6 -222z"/>
<path d="M1387 2612 c-15 -17 -17 -68 -17 -523 0 -277 4 -509 8 -515 18 -27
56 -34 180 -34 116 0 132 2 156 21 l27 21 -3 510 c-3 491 -4 510 -22 524 -15
11 -56 14 -166 14 -130 0 -149 -2 -163 -18z"/>
</g>
</svg>
